<svg id="Layer_1" enable-background="new 0 0 512 512" height="512" viewBox="0 0 512 512" width="512" xmlns="http://www.w3.org/2000/svg"><g><g id="XMLID_63_"><g><g id="XMLID_1348_"><g id="XMLID_1349_"><g id="XMLID_1561_"><g id="XMLID_1562_"><g id="XMLID_1563_"><g id="XMLID_1564_"><g id="XMLID_1565_"><g id="XMLID_1566_"><g id="XMLID_1567_"><g id="XMLID_1568_"><g id="XMLID_1569_"><g id="XMLID_1570_"><g id="XMLID_1571_"><g id="XMLID_1572_"><circle cx="256" cy="256" fill="#5eefee" r="256"/></g></g></g></g></g></g></g></g></g></g></g></g></g></g></g></g><path d="m512 256c0-40.255-9.303-78.333-25.858-112.221l-55.835-55.835-367.562 322.299 71.036 70.751c36.32 19.771 77.957 31.006 122.219 31.006 141.385 0 256-114.615 256-256z" fill="#54c9fc"/><g><path d="m409.23 364.5h-306.46c-14.037 0-25.522-11.485-25.522-25.522v-236.691c0-14.037 11.485-25.522 25.522-25.522h306.46c14.037 0 25.522 11.485 25.522 25.522v236.691c0 14.037-11.485 25.522-25.522 25.522z" fill="#8e8382"/><path d="m434.75 102.29v236.69c0 9.36-5.1 17.58-12.67 22.02-3.78 2.23-8.17 3.5-12.85 3.5h-153.23v-287.73h153.23c14.04 0 25.52 11.48 25.52 25.52z" fill="#776d6b"/><path d="m110.674 108.294h290.651v219.993h-290.651z" fill="#fff"/><path d="m256 108.29h145.33v220h-145.33z" fill="#eae1dc"/><g><g><g><path d="m263.249 295.458h-14.499c-10.031 0-18.164-8.132-18.164-18.164v-15.862h50.826v15.862c.001 10.032-8.131 18.164-18.163 18.164z" fill="#0768dd"/></g></g></g><g><g><g><path d="m281.41 261.43v15.86c0 10.04-8.13 18.17-18.16 18.17h-7.25v-34.03z" fill="#0059b2"/></g></g></g><path d="m431.881 416.75h-351.762c-14.612 0-26.457-11.845-26.457-26.457v-29.293h404.676v29.293c0 14.612-11.845 26.457-26.457 26.457z" fill="#776d6b"/><path d="m458.34 361v29.29c0 14.61-11.85 26.46-26.46 26.46h-175.88v-55.75z" fill="#57555c"/><g><g><path d="m301.027 391h-90.053c-12.066 0-21.848-9.782-21.848-21.848v-8.152h133.75v8.152c-.001 12.066-9.783 21.848-21.849 21.848z" fill="#57555c"/></g></g><g><g><path d="m322.88 361v8.15c0 12.07-9.79 21.85-21.85 21.85h-45.03v-30z" fill="#48464c"/></g></g><path d="m297.177 180.226c0-22.778-18.496-41.237-41.288-41.176-21.988.058-40.295 17.768-41.041 39.743-.439 12.918 5.078 24.556 14.014 32.393 3.567 3.128 5.968 7.37 6.668 12.062l2.05 13.752h36.839l2.052-13.755c.694-4.653 3.037-8.893 6.582-11.985 8.654-7.547 14.124-18.65 14.124-31.034z" fill="#fedd55"/><path d="m297.18 180.23c0 12.38-5.47 23.48-14.13 31.03-3.54 3.09-5.88 7.33-6.58 11.99l-1.3 8.75-.75 5h-18.42v-97.95c22.74 0 41.18 18.44 41.18 41.18z" fill="#fcc63d"/><g><path d="m216.923 232h78.153v30.623h-78.153z" fill="#238cf8"/></g><g><path d="m256 232h39.08v30.62h-39.08z" fill="#0768dd"/></g></g></g></svg>