<svg id="Layer_1" enable-background="new 0 0 512 512" height="512" viewBox="0 0 512 512" width="512" xmlns="http://www.w3.org/2000/svg"><g><g id="XMLID_322_"><g><g id="XMLID_1068_"><g id="XMLID_1083_"><g id="XMLID_1084_"><g id="XMLID_1085_"><g id="XMLID_1086_"><g id="XMLID_1087_"><g id="XMLID_1088_"><g id="XMLID_1089_"><g id="XMLID_1090_"><g id="XMLID_1091_"><g id="XMLID_1092_"><g id="XMLID_1093_"><g id="XMLID_1094_"><g id="XMLID_1095_"><circle cx="256" cy="256" fill="#5eefee" r="256"/></g></g></g></g></g></g></g></g></g></g></g></g></g></g></g></g><path d="m512 256c0-43.513-10.87-84.482-30.021-120.364l-44.274-44.679-360.759 252.543 90.4 90.783-8.978 25.069 47.216 47.673c16.302 3.255 33.157 4.975 50.416 4.975 141.385 0 256-114.615 256-256z" fill="#54c9fc"/><g><path d="m314.172 342.966h-116.349l-16.31 91.34h148.97z" fill="#776d6b"/><path d="m330.482 434.306h-74.484v-91.343h58.179l1.155 6.492 12.962 72.583z" fill="#57555c"/><path d="m420.274 349.455h-328.553c-11.769 0-21.398-9.629-21.398-21.398v-225.045c0-11.769 9.629-21.398 21.398-21.398h328.553c11.769 0 21.398 9.629 21.398 21.398v225.045c.001 11.769-9.629 21.398-21.398 21.398z" fill="#8e8382"/><path d="m441.677 103.49v224.087c0 12.033-9.845 21.877-21.877 21.877h-163.802v-267.841h163.802c12.033 0 21.877 9.845 21.877 21.877z" fill="#776d6b"/><path d="m105.968 116.685h300.06v197.699h-300.06z" fill="#fff"/><g><path d="m255.998 116.688h150.032v197.692h-150.032z" fill="#eae1dc"/></g><path d="m158.368 422.038h195.259v37.314h-195.259z" fill="#8e8382"/><path d="m255.998 422.038h97.629v37.314h-97.629z" fill="#776d6b"/><g><g><path d="m136.957 232.511 12.99-32.959 15.8-23.336 15.799 23.336 12.99 32.959-28.789 10.78z" fill="#fdc37e"/><g fill="#fd9126"><path d="m149.947 199.552 15.8-40.101 15.799 40.101z"/><path d="m136.962 232.511h57.579v81.872h-57.579z" transform="matrix(-1 0 0 -1 331.502 546.895)"/></g></g><g><path d="m227.206 232.511 12.99-32.959 15.799-23.336 15.8 23.336 12.99 32.959-28.79 10.78z" fill="#fdc37e"/><path d="m284.79 232.51-28.79 10.78v-67.07l15.79 23.33z" fill="#f4ad60"/><path d="m240.196 199.552 15.799-40.101 15.8 40.101z" fill="#238cf8"/><g><path d="m271.79 199.55h-15.79v-40.1z" fill="#0768dd"/></g><path d="m227.21 232.511h57.579v81.872h-57.579z" fill="#238cf8" transform="matrix(-1 0 0 -1 512 546.895)"/><path d="m256 232.51h28.79v81.87h-28.79z" fill="#0768dd"/></g><g><path d="m317.454 232.511 12.991-32.959 15.799-23.336 15.8 23.336 12.99 32.959-28.79 10.78z" fill="#f4ad60"/><g fill="#fc3e53"><path d="m330.445 199.552 15.799-40.101 15.8 40.101z"/><path d="m317.459 232.511h57.579v81.872h-57.579z" transform="matrix(-1 0 0 -1 692.497 546.895)"/></g></g></g></g></g></svg>